<svg width="62" height="42" viewBox="0 0 62 42" fill="none" xmlns="http://www.w3.org/2000/svg">
<path d="M30.65 0.695116C39.0001 0.695116 47.3095 0.695116 55.6596 0.695116C56.2298 0.695116 57.0445 0.40999 57.2889 1.10244C57.5332 1.75415 56.8001 2.12074 56.3928 2.52806C48.3278 10.4708 40.2221 18.3729 32.1979 26.3564C30.9759 27.5376 30.2427 27.4969 29.0615 26.3156C21.078 18.3729 13.013 10.5116 5.02951 2.60953C4.58145 2.16147 3.68535 1.83561 4.0112 1.0617C4.33706 0.328524 5.23316 0.695113 5.88488 0.654381C14.1128 0.695113 22.3814 0.695116 30.65 0.695116Z" fill="#F5F5F5"/>
<path d="M30.405 41.3052C22.1364 41.3052 13.8678 41.3052 5.55841 41.3052C4.86597 41.3052 3.8884 41.6718 3.52181 40.8571C3.23668 40.1647 4.13279 39.7166 4.54011 39.2686C9.38724 34.1363 14.2344 29.0041 19.0408 23.8718C19.8554 22.9757 20.3442 22.8535 21.2403 23.7903C23.8471 26.4787 26.5762 29.0041 29.1831 31.6924C30.2421 32.7921 30.9753 32.7514 32.0343 31.6924C34.6412 29.0448 37.3702 26.4787 39.9771 23.8311C40.7103 23.0572 41.1583 23.0979 41.8915 23.8718C46.9423 29.2077 51.9931 34.4622 57.0438 39.7981C57.3697 40.1239 57.8992 40.4905 57.6548 40.9793C57.4104 41.5903 56.718 41.3866 56.1885 41.3866C47.6347 41.3052 38.9995 41.3052 30.405 41.3052Z" fill="#F5F5F5"/>
<path d="M61.1165 20.6132C61.1165 25.6232 61.1165 30.6333 61.1165 35.6433C61.1165 36.295 61.4423 37.1504 60.7499 37.517C59.9352 37.8836 59.6094 36.9875 59.2021 36.5394C54.3549 31.4886 49.5485 26.4378 44.7014 21.4278C43.8868 20.6132 43.6831 20.1651 44.6607 19.2283C49.5893 14.5033 54.4364 9.65621 59.365 4.84981C59.7723 4.48322 60.0574 3.66858 60.8313 4.0759C61.4016 4.36102 61.1572 5.05347 61.1572 5.58299C61.1165 10.593 61.1165 15.6031 61.1165 20.6132Z" fill="#F5F5F5"/>
<path d="M0.14116 20.6131C0.14116 15.603 0.14116 10.593 0.14116 5.5829C0.14116 5.01265 -0.143963 4.23874 0.629948 3.99434C1.24093 3.83141 1.56679 4.4424 1.93338 4.80899C6.82123 9.61538 11.6684 14.4218 16.5969 19.1874C17.3709 19.9206 17.3709 20.3279 16.6377 21.1018C11.6684 26.2748 6.7805 31.5293 1.81118 36.743C1.44459 37.1096 1.15946 37.7613 0.548482 37.5169C-0.0625004 37.2725 0.14116 36.5801 0.14116 36.0505C0.14116 30.9183 0.14116 25.786 0.14116 20.6131Z" fill="#F5F5F5"/>
</svg>
