<svg width="49" height="48" viewBox="0 0 49 48" fill="none" xmlns="http://www.w3.org/2000/svg">
<path fill-rule="evenodd" clip-rule="evenodd" d="M48.8627 24C48.8627 37.2548 38.1175 48 24.8627 48C11.6078 48 0.862671 37.2548 0.862671 24C0.862671 10.7452 11.6078 0 24.8627 0C38.1175 0 48.8627 10.7452 48.8627 24ZM25.7227 17.7179C23.3884 18.6888 18.7229 20.6984 11.7265 23.7466C10.5903 24.1984 9.99519 24.6404 9.94101 25.0726C9.84944 25.803 10.7641 26.0906 12.0096 26.4822C12.179 26.5355 12.3546 26.5907 12.5345 26.6492C13.7599 27.0475 15.4083 27.5135 16.2652 27.5321C17.0426 27.5489 17.9101 27.2284 18.868 26.5707C25.405 22.158 28.7794 19.9276 28.9913 19.8795C29.1408 19.8456 29.3479 19.803 29.4882 19.9277C29.6285 20.0524 29.6147 20.2886 29.5999 20.352C29.5093 20.7383 25.9189 24.0762 24.0609 25.8036C23.4817 26.3421 23.0708 26.724 22.9868 26.8113C22.7987 27.0067 22.6069 27.1915 22.4226 27.3692C21.2842 28.4667 20.4305 29.2896 22.4699 30.6336C23.45 31.2794 24.2342 31.8135 25.0166 32.3463C25.871 32.9282 26.7233 33.5085 27.8259 34.2313C28.1068 34.4155 28.3751 34.6068 28.6365 34.7931C29.6308 35.5019 30.5242 36.1388 31.6278 36.0373C32.2692 35.9782 32.9316 35.3752 33.268 33.5767C34.0631 29.3263 35.6259 20.1169 35.9871 16.3219C36.0188 15.9895 35.9789 15.5639 35.947 15.3771C35.915 15.1904 35.8482 14.9242 35.6054 14.7272C35.3179 14.4939 34.8739 14.4447 34.6754 14.4482C33.7727 14.4641 32.3878 14.9456 25.7227 17.7179Z" fill="white"/>
</svg>
