<svg width="139" height="57" viewBox="0 0 139 57" fill="none" xmlns="http://www.w3.org/2000/svg">
<path d="M20.7601 0L13.7363 5.5777L18.9009 9.50274L20.7601 8.15996V0Z" fill="#F0F0F2"/>
<path d="M6.30073 19.4186L0 16.2166L8.05667 9.91589L13.6344 13.8409L6.30073 19.4186Z" fill="#F0F0F2"/>
<path d="M35.2207 10.1224L20.8633 20.0383L27.887 24.893C36.1503 16.01 35.6338 11.0521 35.2207 10.1224Z" fill="#F0F0F2"/>
<path d="M29.571 14.4255L20.7598 8.15996V0L35.2205 10.1225L29.571 14.4255Z" fill="#F0F0F2"/>
<path d="M20.8633 28.7147V20.0383C37.4931 30.9871 40.6951 36.4615 40.6951 41.3162L20.8633 28.7147Z" fill="#F0F0F2"/>
<path d="M15.3887 23.9634L20.8631 20.0383V28.7147L15.3887 32.7431V23.9634Z" fill="#F0F0F2"/>
<path d="M34.911 37.5979L20.9668 48.0303V56.5001L40.6953 41.3164L34.911 37.5979Z" fill="#F0F0F2"/>
<path d="M20.9681 41.9359V56.4999L15.2871 52.4716V37.9076L20.9681 41.9359Z" fill="#F0F0F2"/>
<path d="M15.287 44.6216V52.4716L0 41.5228L6.30073 38.2175L15.287 44.6216Z" fill="#F0F0F2"/>
<path d="M6.30073 38.2175L0 41.5228V16.2166L6.30073 19.4186V38.2175Z" fill="#F0F0F2"/>
<g clip-path="url(#clip0_780_227)">
<path d="M63.0728 19.212H62.8732C62.364 19.212 61.9512 19.6365 61.9512 20.1602V39.0352C61.9512 39.5589 62.364 39.9834 62.8732 39.9834H63.0728C63.582 39.9834 63.9948 39.5589 63.9948 39.0352V20.1602C63.9948 19.6365 63.582 19.212 63.0728 19.212Z" fill="#F0F0F2" stroke="#F0F0F2" stroke-width="2" stroke-miterlimit="10"/>
<path d="M110.133 23.0535V39.3187C110.133 39.5054 110.061 39.6844 109.933 39.8164C109.804 39.9484 109.63 40.0225 109.449 40.0225C109.267 40.0225 109.093 39.9484 108.965 39.8164C108.836 39.6844 108.764 39.5054 108.764 39.3187V23.6791C108.74 23.0824 108.54 22.5074 108.189 22.0311C107.839 21.5548 107.355 21.1999 106.803 21.0139C106.251 20.8279 105.657 20.8196 105.101 20.9902C104.544 21.1608 104.051 21.5022 103.689 21.9685L103.612 22.0663L103.147 22.7114L102.196 24.0701L95.1053 33.8449C94.7748 34.4096 94.3079 34.8768 93.7499 35.2011C93.192 35.5254 92.5619 35.6959 91.921 35.6959C91.2801 35.6959 90.6501 35.5254 90.0921 35.2011C89.5342 34.8768 89.0673 34.4096 88.7368 33.8449L81.6459 24.0701L80.6953 22.7114L80.1535 21.9588C79.7902 21.4919 79.2966 21.1504 78.7392 20.9801C78.1817 20.8098 77.5869 20.8189 77.0346 21.0061C76.4823 21.1933 75.9988 21.5497 75.6491 22.0274C75.2993 22.5052 75.1 23.0815 75.0777 23.6791V39.309C75.0704 39.4905 74.995 39.6621 74.8675 39.7878C74.7399 39.9135 74.57 39.9836 74.3934 39.9834C74.2119 39.9834 74.0378 39.9093 73.9094 39.7773C73.7811 39.6453 73.709 39.4663 73.709 39.2796V23.0633C73.714 22.1229 74.0788 21.2224 74.7245 20.5565C75.3702 19.8906 76.245 19.513 77.1594 19.5053H78.3C78.8516 19.4981 79.3971 19.6243 79.8925 19.8739C80.3878 20.1236 80.8192 20.4895 81.1516 20.9422L87.6152 29.9545L88.8698 31.6847L89.8204 32.9945C90.3779 33.57 91.108 33.935 91.8925 34.0306C92.6613 33.9507 93.3814 33.6063 93.9361 33.0531L94.8867 31.714L96.1699 29.9545L102.671 20.9324C103.004 20.4797 103.435 20.1138 103.931 19.8642C104.426 19.6146 104.971 19.4883 105.523 19.4955H106.626C107.083 19.4917 107.537 19.5807 107.961 19.7575C108.385 19.9344 108.772 20.1955 109.097 20.5261C109.423 20.8566 109.682 21.25 109.86 21.6837C110.038 22.1174 110.131 22.5829 110.133 23.0535Z" fill="#F0F0F2" stroke="#F0F0F2" stroke-width="2" stroke-miterlimit="10"/>
<path d="M132.707 39.739C134.159 39.7494 135.556 39.1662 136.59 38.1176C137.624 37.0691 138.21 35.6411 138.22 34.1479C138.23 32.6546 137.663 31.2184 136.644 30.1552C135.624 29.092 134.235 28.4889 132.783 28.4785H122.156C121.988 28.4785 121.826 28.5475 121.706 28.6703C121.587 28.7932 121.52 28.9597 121.52 29.1334C121.52 29.3071 121.587 29.4737 121.706 29.5965C121.826 29.7193 121.988 29.7883 122.156 29.7883H132.612C133.688 29.8481 134.7 30.3316 135.439 31.1386C136.177 31.9456 136.585 33.014 136.578 34.1221C136.571 35.2302 136.149 36.2928 135.4 37.0893C134.65 37.8859 133.632 38.3552 132.555 38.3999H116.748C116.663 38.3986 116.578 38.4149 116.499 38.4478C116.42 38.4807 116.348 38.5296 116.288 38.5916C116.228 38.6536 116.18 38.7274 116.148 38.8087C116.116 38.8899 116.1 38.9769 116.102 39.0646C116.1 39.1527 116.116 39.2402 116.148 39.3219C116.18 39.4037 116.227 39.4781 116.288 39.5409C116.348 39.6037 116.419 39.6535 116.498 39.6875C116.577 39.7215 116.662 39.739 116.748 39.739H132.707Z" fill="#F0F0F2" stroke="#F0F0F2" stroke-width="2" stroke-miterlimit="10"/>
<path d="M135.968 19.6323C135.966 19.7846 135.916 19.9321 135.825 20.0526L135.768 20.1113L131.605 24.549C131.544 24.6166 131.471 24.6705 131.389 24.7073C131.307 24.7442 131.219 24.7632 131.13 24.7632C131.04 24.7632 130.952 24.7442 130.87 24.7073C130.788 24.6705 130.715 24.6166 130.654 24.549C130.595 24.489 130.548 24.4175 130.516 24.3386C130.484 24.2597 130.468 24.1751 130.468 24.0896C130.468 24.0041 130.484 23.9195 130.516 23.8406C130.548 23.7617 130.595 23.6902 130.654 23.6302L130.731 23.552L134.19 20.2872H116.682C116.513 20.2872 116.351 20.2182 116.231 20.0954C116.112 19.9726 116.045 19.806 116.045 19.6323C116.045 19.4586 116.112 19.2921 116.231 19.1692C116.351 19.0464 116.513 18.9774 116.682 18.9774H135.35C135.516 18.9825 135.673 19.0537 135.788 19.176C135.903 19.2983 135.968 19.462 135.968 19.6323Z" fill="#F0F0F2" stroke="#F0F0F2" stroke-width="2" stroke-miterlimit="10"/>
</g>
<defs>
<clipPath id="clip0_780_227">
<rect width="78" height="23" fill="white" transform="translate(61 18)"/>
</clipPath>
</defs>
</svg>
