<svg width="90" height="150" viewBox="0 0 90 150" fill="none" xmlns="http://www.w3.org/2000/svg">
<path d="M42.7223 0L30.9746 9.32906L39.6126 15.894L42.7223 13.6481V0Z" fill="#F0F0F2"/>
<path d="M18.5384 32.4789L8 27.1233L21.4753 16.585L30.8044 23.1499L18.5384 32.4789Z" fill="#F0F0F2"/>
<path d="M66.9082 16.9307L42.8945 33.5157L54.6422 41.6354C68.4631 26.778 67.5993 18.4855 66.9082 16.9307Z" fill="#F0F0F2"/>
<path d="M57.46 24.1276L42.7227 13.6481V0L66.9091 16.9305L57.46 24.1276Z" fill="#F0F0F2"/>
<path d="M42.8945 48.0275V33.5156C70.709 51.8282 76.0645 60.9845 76.0645 69.1043L42.8945 48.0275Z" fill="#F0F0F2"/>
<path d="M33.7383 40.0805L42.8946 33.5156V48.0275L33.7383 54.7651V40.0805Z" fill="#F0F0F2"/>
<path d="M66.391 62.8848L43.0684 80.3336V94.4999L76.0656 69.1041L66.391 62.8848Z" fill="#F0F0F2"/>
<path d="M43.0702 70.1405V94.4997L33.5684 87.762V63.4028L43.0702 70.1405Z" fill="#F0F0F2"/>
<path d="M33.5685 74.6325V87.7623L8 69.4497L18.5384 63.9214L33.5685 74.6325Z" fill="#F0F0F2"/>
<path d="M18.5384 63.921L8 69.4493V27.123L18.5384 32.4786V63.921Z" fill="#F0F0F2"/>
<g clip-path="url(#clip0_726_240)">
<path d="M2.39183 125.37H2.16151C1.57396 125.37 1.09766 125.85 1.09766 126.442V147.779C1.09766 148.371 1.57396 148.851 2.16151 148.851H2.39183C2.97938 148.851 3.45569 148.371 3.45569 147.779V126.442C3.45569 125.85 2.97938 125.37 2.39183 125.37Z" fill="#F0F0F2" stroke="#F0F0F2" stroke-width="2" stroke-miterlimit="10"/>
<path d="M56.6918 129.713V148.1C56.6918 148.311 56.6087 148.513 56.4606 148.662C56.3125 148.811 56.1116 148.895 55.9022 148.895C55.6928 148.895 55.4919 148.811 55.3438 148.662C55.1957 148.513 55.1125 148.311 55.1125 148.1V130.42C55.0848 129.745 54.8532 129.095 54.4489 128.557C54.0445 128.019 53.4866 127.617 52.8497 127.407C52.2129 127.197 51.5275 127.188 50.8852 127.38C50.243 127.573 49.6745 127.959 49.2558 128.486L49.1681 128.597L48.6307 129.326L47.5339 130.862L39.3521 141.912C38.9707 142.55 38.432 143.078 37.7882 143.445C37.1444 143.812 36.4175 144.004 35.678 144.004C34.9384 144.004 34.2115 143.812 33.5677 143.445C32.9239 143.078 32.3852 142.55 32.0038 141.912L23.822 130.862L22.7252 129.326L22.1001 128.475C21.6808 127.947 21.1114 127.561 20.4681 127.369C19.8249 127.176 19.1386 127.187 18.5013 127.398C17.864 127.61 17.3062 128.013 16.9026 128.553C16.4991 129.093 16.269 129.745 16.2434 130.42V148.089C16.2349 148.294 16.148 148.488 16.0008 148.63C15.8536 148.772 15.6576 148.851 15.4537 148.851C15.2443 148.851 15.0434 148.767 14.8954 148.618C14.7473 148.469 14.6641 148.266 14.6641 148.055V129.724C14.6698 128.661 15.0907 127.643 15.8358 126.89C16.5809 126.137 17.5902 125.711 18.6453 125.702H19.9614C20.5979 125.694 21.2273 125.836 21.7989 126.119C22.3704 126.401 22.8681 126.814 23.2517 127.326L30.7096 137.514L32.1574 139.47L33.2541 140.95C33.8974 141.601 34.7399 142.014 35.6451 142.122C36.5321 142.031 37.363 141.642 38.0031 141.017L39.0998 139.503L40.5805 137.514L48.0823 127.315C48.4659 126.803 48.9635 126.39 49.5351 126.107C50.1067 125.825 50.7361 125.683 51.3726 125.691H52.6448C53.1729 125.686 53.6966 125.787 54.186 125.987C54.6754 126.187 55.1208 126.482 55.4968 126.856C55.8727 127.229 56.1718 127.674 56.3769 128.164C56.5819 128.655 56.689 129.181 56.6918 129.713Z" fill="#F0F0F2" stroke="#F0F0F2" stroke-width="2" stroke-miterlimit="10"/>
<path d="M82.7386 148.574C84.414 148.586 86.0255 147.927 87.2185 146.742C88.4114 145.556 89.0881 143.942 89.0998 142.254C89.1114 140.566 88.457 138.943 87.2805 137.741C86.104 136.539 84.5018 135.857 82.8263 135.845H70.5646C70.3697 135.845 70.1828 135.923 70.045 136.062C69.9071 136.201 69.8297 136.389 69.8297 136.586C69.8297 136.782 69.9071 136.97 70.045 137.109C70.1828 137.248 70.3697 137.326 70.5646 137.326H82.6289C83.8704 137.393 85.0384 137.94 85.8905 138.852C86.7425 139.765 87.2132 140.972 87.2047 142.225C87.1962 143.478 86.7093 144.679 85.845 145.579C84.9807 146.48 83.8054 147.01 82.5631 147.061H64.324C64.2257 147.059 64.128 147.078 64.0369 147.115C63.9457 147.152 63.8629 147.207 63.7934 147.277C63.7238 147.348 63.6689 147.431 63.632 147.523C63.595 147.615 63.5767 147.713 63.5782 147.812C63.5768 147.912 63.595 148.011 63.6318 148.103C63.6686 148.195 63.7233 148.28 63.7927 148.351C63.8621 148.421 63.9448 148.478 64.036 148.516C64.1272 148.555 64.2251 148.575 64.324 148.574H82.7386Z" fill="#F0F0F2" stroke="#F0F0F2" stroke-width="2" stroke-miterlimit="10"/>
<path d="M86.5017 125.845C86.4994 126.017 86.4416 126.184 86.3372 126.32L86.2714 126.387L81.4676 131.403C81.3978 131.48 81.313 131.541 81.2186 131.582C81.1242 131.624 81.0223 131.645 80.9192 131.645C80.8162 131.645 80.7142 131.624 80.6199 131.582C80.5255 131.541 80.4407 131.48 80.3708 131.403C80.3025 131.335 80.2483 131.255 80.2113 131.165C80.1742 131.076 80.1552 130.981 80.1552 130.884C80.1552 130.787 80.1742 130.692 80.2113 130.603C80.2483 130.513 80.3025 130.432 80.3708 130.365L80.4586 130.276L84.4508 126.586H64.2485C64.0536 126.586 63.8667 126.508 63.7289 126.369C63.5911 126.23 63.5137 126.042 63.5137 125.845C63.5137 125.649 63.5911 125.461 63.7289 125.322C63.8667 125.183 64.0536 125.105 64.2485 125.105H85.7888C85.9799 125.111 86.1612 125.191 86.2943 125.329C86.4274 125.468 86.5018 125.653 86.5017 125.845Z" fill="#F0F0F2" stroke="#F0F0F2" stroke-width="2" stroke-miterlimit="10"/>
</g>
<defs>
<clipPath id="clip0_726_240">
<rect width="90" height="26" fill="white" transform="translate(0 124)"/>
</clipPath>
</defs>
</svg>
