<svg width="42" height="57" viewBox="0 0 42 57" fill="none" xmlns="http://www.w3.org/2000/svg">
<path d="M21.4133 0L14.3895 5.5777L19.554 9.50274L21.4133 8.15996V0Z" fill="#F0F0F2"/>
<path d="M6.95301 19.4188L0.652283 16.2167L8.70895 9.91602L14.2867 13.8411L6.95301 19.4188Z" fill="#F0F0F2"/>
<path d="M35.8733 10.1223L21.5159 20.0382L28.5397 24.8929C36.803 16.0099 36.2865 11.0519 35.8733 10.1223Z" fill="#F0F0F2"/>
<path d="M30.224 14.4255L21.4128 8.15996V0L35.8735 10.1225L30.224 14.4255Z" fill="#F0F0F2"/>
<path d="M21.5159 28.7147V20.0383C38.1457 30.9871 41.3478 36.4615 41.3478 41.3162L21.5159 28.7147Z" fill="#F0F0F2"/>
<path d="M16.0417 23.9634L21.5161 20.0383V28.7147L16.0417 32.7431V23.9634Z" fill="#F0F0F2"/>
<path d="M35.5633 37.5979L21.6191 48.0303V56.5001L41.3476 41.3164L35.5633 37.5979Z" fill="#F0F0F2"/>
<path d="M21.6195 41.9358V56.4998L15.9386 52.4715V37.9075L21.6195 41.9358Z" fill="#F0F0F2"/>
<path d="M15.9393 44.6216V52.4716L0.652283 41.5228L6.95301 38.2175L15.9393 44.6216Z" fill="#F0F0F2"/>
<path d="M6.95301 38.2175L0.652283 41.5228V16.2166L6.95301 19.4186V38.2175Z" fill="#F0F0F2"/>
</svg>
